<svg width="68" height="26" viewBox="0 0 68 26" fill="none" xmlns="http://www.w3.org/2000/svg">
<rect width="68" height="26" rx="4" fill="#E9ECEF"/>
<path d="M23.7188 11.0653C23.6733 10.6619 23.4858 10.3494 23.1562 10.1278C22.8267 9.90341 22.4119 9.79119 21.9119 9.79119C21.554 9.79119 21.2443 9.84801 20.983 9.96165C20.7216 10.0724 20.5185 10.2259 20.3736 10.4219C20.2315 10.6151 20.1605 10.8352 20.1605 11.0824C20.1605 11.2898 20.2088 11.4687 20.3054 11.6193C20.4048 11.7699 20.5341 11.8963 20.6932 11.9986C20.8551 12.098 21.0284 12.1818 21.2131 12.25C21.3977 12.3153 21.5753 12.3693 21.7457 12.4119L22.598 12.6335C22.8764 12.7017 23.1619 12.794 23.4545 12.9105C23.7472 13.027 24.0185 13.1804 24.2685 13.3707C24.5185 13.5611 24.7202 13.7969 24.8736 14.0781C25.0298 14.3594 25.108 14.696 25.108 15.0881C25.108 15.5824 24.9801 16.0213 24.7244 16.4048C24.4716 16.7884 24.1037 17.0909 23.6207 17.3125C23.1406 17.5341 22.5597 17.6449 21.8778 17.6449C21.2244 17.6449 20.6591 17.5412 20.1818 17.3338C19.7045 17.1264 19.331 16.8324 19.0611 16.4517C18.7912 16.0682 18.642 15.6136 18.6136 15.0881H19.9347C19.9602 15.4034 20.0625 15.6662 20.2415 15.8764C20.4233 16.0838 20.6548 16.2386 20.9361 16.3409C21.2202 16.4403 21.5312 16.4901 21.8693 16.4901C22.2415 16.4901 22.5724 16.4318 22.8622 16.3153C23.1548 16.196 23.3849 16.0312 23.5526 15.821C23.7202 15.608 23.804 15.3594 23.804 15.0753C23.804 14.8168 23.7301 14.6051 23.5824 14.4403C23.4375 14.2756 23.2401 14.1392 22.9901 14.0312C22.7429 13.9233 22.4631 13.8281 22.1506 13.7457L21.1193 13.4645C20.4205 13.2741 19.8665 12.9943 19.4574 12.625C19.0511 12.2557 18.848 11.767 18.848 11.1591C18.848 10.6562 18.9844 10.2173 19.2571 9.84233C19.5298 9.46733 19.8991 9.17614 20.3651 8.96875C20.831 8.75852 21.3565 8.65341 21.9418 8.65341C22.5327 8.65341 23.054 8.7571 23.5057 8.96449C23.9602 9.17188 24.3182 9.45739 24.5795 9.82102C24.8409 10.1818 24.9773 10.5966 24.9886 11.0653H23.7188ZM28.484 17.6449C28.0692 17.6449 27.6942 17.5682 27.359 17.4148C27.0238 17.2585 26.7582 17.0327 26.5621 16.7372C26.369 16.4418 26.2724 16.0795 26.2724 15.6506C26.2724 15.2812 26.3434 14.9773 26.4854 14.7386C26.6275 14.5 26.8192 14.3111 27.0607 14.1719C27.3022 14.0327 27.5721 13.9276 27.8704 13.8565C28.1687 13.7855 28.4727 13.7315 28.7823 13.6946C29.1744 13.6491 29.4925 13.6122 29.7369 13.5838C29.9812 13.5526 30.1587 13.5028 30.2695 13.4347C30.3803 13.3665 30.4357 13.2557 30.4357 13.1023V13.0724C30.4357 12.7003 30.3306 12.4119 30.1204 12.2074C29.913 12.0028 29.6033 11.9006 29.1914 11.9006C28.7624 11.9006 28.4244 11.9957 28.1772 12.1861C27.9329 12.3736 27.7638 12.5824 27.6701 12.8125L26.4727 12.5398C26.6147 12.142 26.8221 11.821 27.0948 11.5767C27.3704 11.3295 27.6871 11.1506 28.0451 11.0398C28.4031 10.9261 28.7795 10.8693 29.1744 10.8693C29.4357 10.8693 29.7127 10.9006 30.0053 10.9631C30.3008 11.0227 30.5763 11.1335 30.832 11.2955C31.0906 11.4574 31.3022 11.6889 31.467 11.9901C31.6317 12.2884 31.7141 12.6761 31.7141 13.1534V17.5H30.4698V16.6051H30.4187C30.3363 16.7699 30.2127 16.9318 30.0479 17.0909C29.8832 17.25 29.6715 17.3821 29.413 17.4872C29.1545 17.5923 28.8448 17.6449 28.484 17.6449ZM28.761 16.6222C29.1133 16.6222 29.4144 16.5526 29.6644 16.4134C29.9173 16.2741 30.109 16.0923 30.2397 15.8679C30.3732 15.6406 30.44 15.3977 30.44 15.1392V14.2955C30.3945 14.3409 30.3065 14.3835 30.1758 14.4233C30.0479 14.4602 29.9016 14.4929 29.7369 14.5213C29.5721 14.5469 29.4116 14.571 29.2553 14.5938C29.0991 14.6136 28.9684 14.6307 28.8633 14.6449C28.6161 14.6761 28.3903 14.7287 28.1857 14.8026C27.984 14.8764 27.8221 14.983 27.6999 15.1222C27.5806 15.2585 27.521 15.4403 27.521 15.6676C27.521 15.983 27.6374 16.2216 27.8704 16.3835C28.1033 16.5426 28.4002 16.6222 28.761 16.6222ZM33.4112 17.5V10.9545H34.6854V17.5H33.4112ZM33.5305 10.081L34.5277 8.11648H35.87L34.549 10.081H33.5305ZM38.8498 17.6278C38.3214 17.6278 37.8498 17.4929 37.435 17.223C37.0231 16.9503 36.6992 16.5625 36.4634 16.0597C36.2305 15.554 36.114 14.9474 36.114 14.2401C36.114 13.5327 36.2319 12.9276 36.4677 12.4247C36.7063 11.9219 37.033 11.5369 37.4478 11.2699C37.8626 11.0028 38.3327 10.8693 38.8583 10.8693C39.2646 10.8693 39.5913 10.9375 39.8384 11.0739C40.0884 11.2074 40.2816 11.3636 40.418 11.5426C40.5572 11.7216 40.6651 11.8793 40.7418 12.0156H40.8185V8.77273H42.0927V17.5H40.8484V16.4815H40.7418C40.6651 16.6207 40.5543 16.7798 40.4094 16.9588C40.2674 17.1378 40.0714 17.294 39.8214 17.4276C39.5714 17.5611 39.2475 17.6278 38.8498 17.6278ZM39.131 16.5412C39.4975 16.5412 39.8072 16.4446 40.06 16.2514C40.3157 16.0554 40.5089 15.7841 40.6396 15.4375C40.7731 15.0909 40.8398 14.6875 40.8398 14.2273C40.8398 13.7727 40.7745 13.375 40.6438 13.0341C40.5131 12.6932 40.3214 12.4276 40.0685 12.2372C39.8157 12.0469 39.5032 11.9517 39.131 11.9517C38.7475 11.9517 38.4279 12.0511 38.1722 12.25C37.9165 12.4489 37.7234 12.7202 37.5927 13.0639C37.4648 13.4077 37.4009 13.7955 37.4009 14.2273C37.4009 14.6648 37.4663 15.0582 37.5969 15.4077C37.7276 15.7571 37.9208 16.0341 38.1765 16.2386C38.435 16.4403 38.7532 16.5412 39.131 16.5412ZM45.8161 17.6449C45.4013 17.6449 45.0263 17.5682 44.6911 17.4148C44.3558 17.2585 44.0902 17.0327 43.8942 16.7372C43.701 16.4418 43.6044 16.0795 43.6044 15.6506C43.6044 15.2812 43.6754 14.9773 43.8175 14.7386C43.9595 14.5 44.1513 14.3111 44.3928 14.1719C44.6342 14.0327 44.9041 13.9276 45.2024 13.8565C45.5007 13.7855 45.8047 13.7315 46.1143 13.6946C46.5064 13.6491 46.8246 13.6122 47.0689 13.5838C47.3132 13.5526 47.4908 13.5028 47.6016 13.4347C47.7124 13.3665 47.7678 13.2557 47.7678 13.1023V13.0724C47.7678 12.7003 47.6626 12.4119 47.4524 12.2074C47.245 12.0028 46.9354 11.9006 46.5234 11.9006C46.0945 11.9006 45.7564 11.9957 45.5092 12.1861C45.2649 12.3736 45.0959 12.5824 45.0021 12.8125L43.8047 12.5398C43.9467 12.142 44.1541 11.821 44.4268 11.5767C44.7024 11.3295 45.0192 11.1506 45.3771 11.0398C45.7351 10.9261 46.1115 10.8693 46.5064 10.8693C46.7678 10.8693 47.0447 10.9006 47.3374 10.9631C47.6328 11.0227 47.9084 11.1335 48.1641 11.2955C48.4226 11.4574 48.6342 11.6889 48.799 11.9901C48.9638 12.2884 49.0462 12.6761 49.0462 13.1534V17.5H47.8018V16.6051H47.7507C47.6683 16.7699 47.5447 16.9318 47.38 17.0909C47.2152 17.25 47.0036 17.3821 46.745 17.4872C46.4865 17.5923 46.1768 17.6449 45.8161 17.6449ZM46.093 16.6222C46.4453 16.6222 46.7464 16.5526 46.9964 16.4134C47.2493 16.2741 47.4411 16.0923 47.5717 15.8679C47.7053 15.6406 47.772 15.3977 47.772 15.1392V14.2955C47.7266 14.3409 47.6385 14.3835 47.5078 14.4233C47.38 14.4602 47.2337 14.4929 47.0689 14.5213C46.9041 14.5469 46.7436 14.571 46.5874 14.5938C46.4311 14.6136 46.3004 14.6307 46.1953 14.6449C45.9482 14.6761 45.7223 14.7287 45.5178 14.8026C45.3161 14.8764 45.1541 14.983 45.032 15.1222C44.9126 15.2585 44.853 15.4403 44.853 15.6676C44.853 15.983 44.9695 16.2216 45.2024 16.3835C45.4354 16.5426 45.7322 16.6222 46.093 16.6222Z" fill="#495057"/>
</svg>
