<svg width="68" height="26" viewBox="0 0 68 26" fill="none" xmlns="http://www.w3.org/2000/svg">
<rect width="68" height="26" rx="4" fill="#E9ECEF"/>
<path d="M12.4588 17.5V8.77273H17.9304V9.90625H13.7756V12.5653H17.6449V13.6946H13.7756V16.3665H17.9815V17.5H12.4588ZM20.8612 13.6136V17.5H19.587V10.9545H20.81V12.0199H20.891C21.0415 11.6733 21.2773 11.3949 21.5984 11.1847C21.9222 10.9744 22.3299 10.8693 22.8214 10.8693C23.2674 10.8693 23.658 10.9631 23.9933 11.1506C24.3285 11.3352 24.5884 11.6108 24.7731 11.9773C24.9577 12.3437 25.0501 12.7969 25.0501 13.3366V17.5H23.7759V13.4901C23.7759 13.0156 23.6523 12.6449 23.4052 12.3778C23.158 12.108 22.8185 11.973 22.3867 11.973C22.0913 11.973 21.8285 12.0369 21.5984 12.1648C21.3711 12.2926 21.1907 12.4801 21.0572 12.7273C20.9265 12.9716 20.8612 13.267 20.8612 13.6136ZM29.8143 10.9545V11.9773H26.239V10.9545H29.8143ZM27.1978 9.38636H28.4719V15.5781C28.4719 15.8253 28.5089 16.0114 28.5827 16.1364C28.6566 16.2585 28.7518 16.3423 28.8683 16.3878C28.9876 16.4304 29.1168 16.4517 29.256 16.4517C29.3583 16.4517 29.4478 16.4446 29.5245 16.4304C29.6012 16.4162 29.6609 16.4048 29.7035 16.3963L29.9336 17.4489C29.8597 17.4773 29.7546 17.5057 29.6183 17.5341C29.4819 17.5653 29.3114 17.5824 29.1069 17.5852C28.7717 17.5909 28.4592 17.5312 28.1694 17.4062C27.8796 17.2812 27.6452 17.0881 27.4663 16.8267C27.2873 16.5653 27.1978 16.2372 27.1978 15.8423V9.38636ZM31.2237 17.5V10.9545H32.4553V11.9943H32.5234C32.6428 11.642 32.853 11.3651 33.1541 11.1634C33.4581 10.9588 33.8018 10.8565 34.1854 10.8565C34.2649 10.8565 34.3587 10.8594 34.4666 10.8651C34.5774 10.8707 34.6641 10.8778 34.7266 10.8864V12.1051C34.6754 12.0909 34.5845 12.0753 34.4538 12.0582C34.3232 12.0384 34.1925 12.0284 34.0618 12.0284C33.7607 12.0284 33.4922 12.0923 33.2564 12.2202C33.0234 12.3452 32.8388 12.5199 32.7024 12.7443C32.5661 12.9659 32.4979 13.2187 32.4979 13.5028V17.5H31.2237ZM37.6754 17.6449C37.2607 17.6449 36.8857 17.5682 36.5504 17.4148C36.2152 17.2585 35.9496 17.0327 35.7536 16.7372C35.5604 16.4418 35.4638 16.0795 35.4638 15.6506C35.4638 15.2812 35.5348 14.9773 35.6768 14.7386C35.8189 14.5 36.0107 14.3111 36.2521 14.1719C36.4936 14.0327 36.7635 13.9276 37.0618 13.8565C37.3601 13.7855 37.6641 13.7315 37.9737 13.6946C38.3658 13.6491 38.6839 13.6122 38.9283 13.5838C39.1726 13.5526 39.3501 13.5028 39.4609 13.4347C39.5717 13.3665 39.6271 13.2557 39.6271 13.1023V13.0724C39.6271 12.7003 39.522 12.4119 39.3118 12.2074C39.1044 12.0028 38.7947 11.9006 38.3828 11.9006C37.9538 11.9006 37.6158 11.9957 37.3686 12.1861C37.1243 12.3736 36.9553 12.5824 36.8615 12.8125L35.6641 12.5398C35.8061 12.142 36.0135 11.821 36.2862 11.5767C36.5618 11.3295 36.8786 11.1506 37.2365 11.0398C37.5945 10.9261 37.9709 10.8693 38.3658 10.8693C38.6271 10.8693 38.9041 10.9006 39.1967 10.9631C39.4922 11.0227 39.7678 11.1335 40.0234 11.2955C40.282 11.4574 40.4936 11.6889 40.6584 11.9901C40.8232 12.2884 40.9055 12.6761 40.9055 13.1534V17.5H39.6612V16.6051H39.6101C39.5277 16.7699 39.4041 16.9318 39.2393 17.0909C39.0746 17.25 38.8629 17.3821 38.6044 17.4872C38.3459 17.5923 38.0362 17.6449 37.6754 17.6449ZM37.9524 16.6222C38.3047 16.6222 38.6058 16.5526 38.8558 16.4134C39.1087 16.2741 39.3004 16.0923 39.4311 15.8679C39.5646 15.6406 39.6314 15.3977 39.6314 15.1392V14.2955C39.5859 14.3409 39.4979 14.3835 39.3672 14.4233C39.2393 14.4602 39.093 14.4929 38.9283 14.5213C38.7635 14.5469 38.603 14.571 38.4467 14.5938C38.2905 14.6136 38.1598 14.6307 38.0547 14.6449C37.8075 14.6761 37.5817 14.7287 37.3771 14.8026C37.1754 14.8764 37.0135 14.983 36.8913 15.1222C36.772 15.2585 36.7124 15.4403 36.7124 15.6676C36.7124 15.983 36.8288 16.2216 37.0618 16.3835C37.2947 16.5426 37.5916 16.6222 37.9524 16.6222ZM45.0529 17.6278C44.5245 17.6278 44.0529 17.4929 43.6381 17.223C43.2262 16.9503 42.9023 16.5625 42.6665 16.0597C42.4336 15.554 42.3171 14.9474 42.3171 14.2401C42.3171 13.5327 42.435 12.9276 42.6708 12.4247C42.9094 11.9219 43.2362 11.5369 43.6509 11.2699C44.0657 11.0028 44.5359 10.8693 45.0614 10.8693C45.4677 10.8693 45.7944 10.9375 46.0415 11.0739C46.2915 11.2074 46.4847 11.3636 46.6211 11.5426C46.7603 11.7216 46.8683 11.8793 46.945 12.0156H47.0217V8.77273H48.2958V17.5H47.0515V16.4815H46.945C46.8683 16.6207 46.7575 16.7798 46.6126 16.9588C46.4705 17.1378 46.2745 17.294 46.0245 17.4276C45.7745 17.5611 45.4506 17.6278 45.0529 17.6278ZM45.3342 16.5412C45.7006 16.5412 46.0103 16.4446 46.2631 16.2514C46.5188 16.0554 46.712 15.7841 46.8427 15.4375C46.9762 15.0909 47.043 14.6875 47.043 14.2273C47.043 13.7727 46.9776 13.375 46.8469 13.0341C46.7163 12.6932 46.5245 12.4276 46.2717 12.2372C46.0188 12.0469 45.7063 11.9517 45.3342 11.9517C44.9506 11.9517 44.631 12.0511 44.3754 12.25C44.1197 12.4489 43.9265 12.7202 43.7958 13.0639C43.668 13.4077 43.604 13.7955 43.604 14.2273C43.604 14.6648 43.6694 15.0582 43.8001 15.4077C43.9308 15.7571 44.1239 16.0341 44.3796 16.2386C44.6381 16.4403 44.9563 16.5412 45.3342 16.5412ZM52.0192 17.6449C51.6044 17.6449 51.2294 17.5682 50.8942 17.4148C50.5589 17.2585 50.2933 17.0327 50.0973 16.7372C49.9041 16.4418 49.8075 16.0795 49.8075 15.6506C49.8075 15.2812 49.8786 14.9773 50.0206 14.7386C50.1626 14.5 50.3544 14.3111 50.5959 14.1719C50.8374 14.0327 51.1072 13.9276 51.4055 13.8565C51.7038 13.7855 52.0078 13.7315 52.3175 13.6946C52.7095 13.6491 53.0277 13.6122 53.272 13.5838C53.5163 13.5526 53.6939 13.5028 53.8047 13.4347C53.9155 13.3665 53.9709 13.2557 53.9709 13.1023V13.0724C53.9709 12.7003 53.8658 12.4119 53.6555 12.2074C53.4482 12.0028 53.1385 11.9006 52.7266 11.9006C52.2976 11.9006 51.9595 11.9957 51.7124 12.1861C51.468 12.3736 51.299 12.5824 51.2053 12.8125L50.0078 12.5398C50.1499 12.142 50.3572 11.821 50.63 11.5767C50.9055 11.3295 51.2223 11.1506 51.5803 11.0398C51.9382 10.9261 52.3146 10.8693 52.7095 10.8693C52.9709 10.8693 53.2479 10.9006 53.5405 10.9631C53.8359 11.0227 54.1115 11.1335 54.3672 11.2955C54.6257 11.4574 54.8374 11.6889 55.0021 11.9901C55.1669 12.2884 55.2493 12.6761 55.2493 13.1534V17.5H54.005V16.6051H53.9538C53.8714 16.7699 53.7479 16.9318 53.5831 17.0909C53.4183 17.25 53.2067 17.3821 52.9482 17.4872C52.6896 17.5923 52.38 17.6449 52.0192 17.6449ZM52.2962 16.6222C52.6484 16.6222 52.9496 16.5526 53.1996 16.4134C53.4524 16.2741 53.6442 16.0923 53.7749 15.8679C53.9084 15.6406 53.9751 15.3977 53.9751 15.1392V14.2955C53.9297 14.3409 53.8416 14.3835 53.7109 14.4233C53.5831 14.4602 53.4368 14.4929 53.272 14.5213C53.1072 14.5469 52.9467 14.571 52.7905 14.5938C52.6342 14.6136 52.5036 14.6307 52.3984 14.6449C52.1513 14.6761 51.9254 14.7287 51.7209 14.8026C51.5192 14.8764 51.3572 14.983 51.2351 15.1222C51.1158 15.2585 51.0561 15.4403 51.0561 15.6676C51.0561 15.983 51.1726 16.2216 51.4055 16.3835C51.6385 16.5426 51.9354 16.6222 52.2962 16.6222Z" fill="#495057"/>
</svg>
